Coordinates
version=1
nRows=21
nColumns=33
inDegrees=yes

Units are S.I. units (second, meters, Newtons, ...)
Angles are in degrees.

endheader
time	ground_thorax_rot_x	ground_thorax_rot_y	ground_thorax_rot_z	ground_thorax_tx	ground_thorax_ty	ground_thorax_tz	clav_prot_r	clav_elev_r	scapula_abduction_r	scapula_elevation_r	scapula_upward_rot_r	scapula_winging_r	shoulder_elv_r	plane_of_elev_r	axial_rot_r	elbow_flexion_r	pro_sup_r	wrist_flex_r	wrist_dev_r	clav_prot_l	clav_elev_l	scapula_abduction_l	scapula_elevation_l	scapula_upward_rot_l	scapula_winging_l	shoulder_elv_l	plane_of_elev_l	axial_rot_l	elbow_flexion_l	pro_sup_l	wrist_flex_l	wrist_dev_l
      1.46000000	     -5.74641562	      4.37109095	     11.88624532	     -0.10553172	      1.02798256	      0.00466056	     17.42434529	    -14.35009385	     42.22211075	    -14.08579738	     21.96233860	    -11.32058256	      0.31593678	    -53.34904833	    122.00120387	    -34.77753865	   -136.50584332	      3.19321036	      0.36466474	     24.21832892	     -9.83825692	    -36.35473041	     -6.45006122	    -23.71936916	     12.14394153	     58.93738181	      1.81089908	     13.92992636	     16.72021062	     21.98503555	     18.76786663	     -5.17916422
      1.47000000	     -5.65407895	      4.26706234	     11.76805845	     -0.10495246	      1.02847426	      0.00470018	     17.34191442	    -14.19817054	     42.23518724	    -14.01046318	     22.15831261	    -11.39257114	      0.18508890	    -53.28444679	    121.82313932	    -34.61622932	   -136.80429747	      3.35470132	      0.25378527	     24.34365527	    -10.43735356	    -36.50904612	     -5.84873332	    -23.53293687	     12.10913058	     59.13305609	      1.93965166	     14.31631314	     15.52835747	     22.11853502	     18.34662932	     -4.96683111
      1.48000000	     -5.53927058	      4.12664390	     11.58286159	     -0.10431445	      1.02877225	      0.00475195	     17.24679965	    -13.94790184	     42.30029649	    -13.87668031	     22.45458492	    -11.53938779	      0.00411694	    -53.24102063	    121.71374802	    -34.46039886	   -137.20019950	      3.57359835	      0.08204897	     24.46101825	    -10.86732855	    -36.65977832	     -5.42800704	    -23.42536485	     12.09875226	     59.29658168	      2.21712425	     14.89745028	     14.49141426	     22.41057145	     17.61807115	     -4.80934468
      1.49000000	     -5.41141159	      3.94433279	     11.47878520	     -0.10380608	      1.02883906	      0.00482368	     17.19649810	    -13.58458204	     42.44605935	    -13.64522429	     22.75508996	    -11.79937118	     -0.29005654	    -53.19990305	    121.60782836	    -34.30478312	   -137.82188117	      3.88446778	     -0.19452040	     24.57329765	    -11.17670661	    -36.80390085	     -5.17639339	    -23.46047333	     12.10273923	     59.40631140	      2.58290713	     15.59452171	     13.57247273	     22.96462557	     16.52197639	     -4.76499806
      1.50000000	     -5.27692664	      3.71569263	     11.42919610	     -0.10345825	      1.02853826	      0.00496438	     17.29199732	    -13.09828884	     42.80892196	    -13.29625105	     23.03154347	    -12.24753838	     -0.70786794	    -53.16713400	    121.45672726	    -34.17341109	   -138.99259908	      4.37053702	     -0.69126458	     24.68642117	    -11.32931261	    -36.95855094	     -5.13832807	    -23.66938460	     12.14692646	     59.49377247	      3.03415333	     16.27474332	     12.90617403	     23.95609682	     15.01035436	     -5.03080375
      1.51000000	     -5.28668105	      3.44276848	     11.38315275	     -0.10305705	      1.02853599	      0.00493714	     17.28042243	    -13.08750494	     42.79269358	    -13.28747007	     23.03321461	    -12.24724839	     -0.77205727	    -53.12789373	    121.46883446	    -34.20306282	   -139.02589581	      4.39072118	     -0.70071131	     24.71347026	    -11.34964709	    -36.99897377	     -5.12781517	    -23.68722171	     12.16658241	     59.50408290	      3.00970087	     16.26399585	     12.83402681	     23.98455125	     14.99654872	     -5.03247154
      1.52000000	     -5.34798219	      3.19243315	     11.35071609	     -0.10283175	      1.02843903	      0.00507194	     17.28276409	    -13.01818471	     42.77298376	    -13.21709403	     22.99107997	    -12.28911374	     -0.96206890	    -53.04624253	    121.50319047	    -34.30579395	   -139.19225647	      4.46978745	     -0.73608146	     24.73915045	    -11.37129072	    -37.03973389	     -5.08729458	    -23.64197544	     12.18223214	     59.63664242	      2.90729692	     16.33940129	     12.56860577	     24.08987970	     14.89452154	     -5.02844218
      1.53000000	     -5.06708465	      3.02452526	     11.39736317	     -0.10249103	      1.02812511	      0.00528435	     17.26250522	    -12.46040645	     42.95819507	    -12.81233981	     23.26420133	    -12.68651619	     -1.59173068	    -53.22682564	    121.40028743	    -34.19965918	   -142.54392632	      5.31486653	     -1.34442322	     24.70119507	    -11.52393727	    -36.94259306	     -5.08023315	    -23.90202940	     12.07213680	     59.63710146	      3.19613642	     16.61504058	     12.19871716	     25.53633258	     13.31793074	     -5.95443432
      1.54000000	     -5.01346420	      2.80663874	     11.32956769	     -0.10241767	      1.02813394	      0.00531625	     17.24631476	    -12.44501773	     42.91489971	    -12.79218017	     23.23524101	    -12.68017126	     -1.58773159	    -53.24174005	    121.36510908	    -34.26147043	   -142.57969822	      5.33241254	     -1.36852004	     24.71316608	    -11.50087956	    -36.96494764	     -5.10443780	    -23.91342699	     12.09263121	     59.65209284	      3.14871644	     16.60671405	     12.15914105	     25.53918653	     13.33288157	     -5.95648184
      1.55000000	     -4.93428288	      2.63990971	     11.32896215	     -0.10213151	      1.02792524	      0.00548846	     17.30483299	    -12.43640423	     42.74896087	    -12.68185808	     22.85049846	    -12.66468512	     -1.76329218	    -53.30541042	    121.28693709	    -34.96015386	   -143.25352675	      5.61418557	     -1.57166103	     24.63853521	    -11.45322606	    -36.84691432	     -5.15888776	    -23.93581355	     12.03116636	     59.61106082	      2.96863257	     16.52988926	     12.41543004	     25.47425614	     13.44169101	     -6.18673898
      1.56000000	     -4.87235449	      2.45016095	     11.29299267	     -0.10236074	      1.02785872	      0.00554824	     17.27543658	    -12.40954884	     42.69033511	    -12.65395808	     22.82856754	    -12.65552337	     -1.76424631	    -53.34552661	    121.25867710	    -35.00667524	   -143.32076436	      5.63442948	     -1.58086612	     24.64592971	    -11.40623245	    -36.86444516	     -5.21239729	    -23.96537120	     12.05493255	     59.64439684	      2.87901817	     16.49246493	     12.39665895	     25.47262726	     13.44698646	     -6.20152369
      1.57000000	     -4.98854588	      2.39900165	     11.26578735	     -0.10218584	      1.02807283	      0.00570490	     17.16537387	    -12.92757870	     42.09551495	    -12.94605789	     22.24106272	    -12.12685573	     -2.03625624	    -53.55171770	    121.32405494	    -35.67268854	   -148.38106191	      6.47871012	     -1.76624624	     24.40211346	    -11.42114511	    -36.46885131	     -5.14133542	    -23.81336260	     11.81817870	     59.82996514	      2.21845799	     15.14540664	     12.74501870	     24.62590413	     13.82746435	     -7.28477183
      1.58000000	     -4.85489399	      2.24085882	     11.36053155	     -0.10223154	      1.02768262	      0.00584562	     17.05904226	    -12.84122362	     41.82177481	    -12.82985578	     22.06902625	    -12.07338657	     -2.25694828	    -53.76595709	    121.49284889	    -36.19956817	   -148.60188899	      6.65096224	     -1.87904458	     24.33852618	    -11.28329998	    -36.36959799	     -5.35431508	    -24.01407099	     11.78346858	     59.71538360	      2.08800799	     15.32671820	     13.25958698	     24.48688761	     13.75030329	     -7.36336895
      1.59000000	     -4.74048524	      2.15870251	     11.36544005	     -0.10240560	      1.02732333	      0.00605388	     17.00668055	    -12.78223035	     41.54131990	    -12.69951536	     21.76457041	    -12.01667379	     -2.40294130	    -53.86680986	    121.46650608	    -36.87008937	   -149.00577751	      6.85399295	     -1.94589227	     24.28028121	    -11.20248106	    -36.27461650	     -5.50295800	    -24.18029814	     11.73850366	     59.72165600	      1.91215432	     15.28413033	     13.80923109	     24.31027585	     13.70486738	     -7.51521332
      1.60000000	     -4.67132749	      2.10422384	     11.32921634	     -0.10320463	      1.02716140	      0.00616612	     16.99122376	    -12.74549327	     41.47805891	    -12.65607389	     21.71566168	    -12.01526101	     -2.38202353	    -53.95548349	    121.42213881	    -36.88975347	   -149.03333290	      6.86006776	     -1.95137725	     24.27229185	    -11.13637230	    -36.27446895	     -5.56455131	    -24.19146556	     11.75460545	     59.77008257	      1.83325946	     15.27998310	     13.81646060	     24.30066183	     13.70209845	     -7.52112891
      1.61000000	     -4.81518576	      2.25387849	     11.52764318	     -0.10312696	      1.02753560	      0.00635110	     16.72720824	    -13.66883963	     40.20359378	    -13.11937913	     20.47400429	    -10.98962928	     -2.68924100	    -54.30933711	    121.11973521	    -38.49037856	   -153.50048909	      7.50082706	     -1.51031413	     24.08710484	    -11.37202696	    -35.91369865	     -5.55522992	    -24.58236296	     11.45467511	     60.23811072	      1.02481050	     13.86041325	     14.88586593	     22.69957957	     13.99553558	     -8.36378134
      1.62000000	     -4.65693922	      2.24324721	     11.58100447	     -0.10337227	      1.02698204	      0.00652487	     16.55420647	    -13.52530106	     39.78735096	    -12.93622142	     20.23864298	    -10.91071268	     -2.92830443	    -54.54204605	    121.22065747	    -39.21745463	   -153.76616917	      7.71361323	     -1.59684104	     23.96284729	    -11.17708807	    -35.72530852	     -5.81230785	    -24.76496190	     11.38137007	     60.06379013	      0.96908630	     14.24115234	     15.67141752	     22.46980225	     13.90683171	     -8.49493790
      1.63000000	     -4.54750926	      2.24116888	     11.64328753	     -0.10374376	      1.02650386	      0.00674528	     16.43421367	    -13.42570093	     39.34553463	    -12.74276947	     19.84075985	    -10.81315097	     -3.18612877	    -54.67452300	    121.14889540	    -40.09823999	   -154.17552216	      7.95620428	     -1.64083162	     23.84617293	    -11.07360967	    -35.53580136	     -6.00773322	    -24.98260617	     11.28057099	     60.03323138	      0.77837948	     14.43986022	     16.48562187	     22.25442412	     13.83293963	     -8.67933923
      1.64000000	     -4.37197812	      2.29201539	     11.72560514	     -0.10416742	      1.02618255	      0.00691945	     16.32225570	    -13.36015068	     38.89462016	    -12.56824331	     19.41190495	    -10.69229264	     -3.37245236	    -54.85862951	    120.94039657	    -40.90377236	   -154.62031628	      8.17430680	     -1.65579726	     23.71600339	    -11.02554583	    -35.31629388	     -6.17864022	    -25.24696244	     11.14418864	     59.96195883	      0.61809968	     14.56322481	     17.37643936	     22.06225012	     13.78264562	     -8.90402271
      1.65000000	     -4.33456262	      2.30394056	     11.88003898	     -0.10461118	      1.02569024	      0.00728621	     16.19118117	    -13.32449196	     38.32729136	    -12.38049865	     18.85024892	    -10.51458897	     -3.80100628	    -54.98784432	    120.77650069	    -42.00501680	   -155.28245857	      8.47279393	     -1.61462886	     23.55469197	    -10.97007655	    -35.04536773	     -6.38211924	    -25.56411134	     10.97508211	     60.06613998	      0.24074061	     14.71938707	     18.40572474	     21.84033323	     13.72411839	     -9.18890686
      1.66000000	     -4.69181033	      2.67839111	     11.90418329	     -0.10496290	      1.02677607	      0.00717394	     15.66651876	    -14.71588640	     36.71383510	    -13.28721481	     17.73797935	     -8.99773879	     -4.07364357	    -55.61803254	    120.33656682	    -43.17270889	   -160.60448692	      8.83478601	     -1.13938075	     23.34507713	    -11.26830851	    -34.64945542	     -6.38401500	    -26.09174068	     10.63313496	     61.04547679	     -0.24706380	     13.76313926	     19.30803352	     21.20052946	     14.03976313	     -9.81599377
